<svg width="24" height="24" viewBox="0 0 24 24" fill="none" xmlns="http://www.w3.org/2000/svg">
<path d="M2.52041 11.394V19.9824H6.05606L6.23459 20.004C9.51704 20.7912 11.6921 21.3588 12.7761 21.7104C14.2161 22.1772 14.7528 22.2912 15.7295 22.3584C16.46 22.41 17.2896 22.1208 17.6677 21.7248C17.8766 21.5064 18.0329 21.0576 18.0948 20.3616C18.1076 20.2157 18.1583 20.076 18.2417 19.9571C18.325 19.8382 18.4379 19.7446 18.5685 19.686C18.8591 19.5564 19.1006 19.3452 19.3025 19.038C19.4892 18.7572 19.6106 18.234 19.6327 17.4768C19.6366 17.3376 19.675 17.2017 19.7442 17.082C19.8135 16.9624 19.9112 16.8628 20.0283 16.7928C20.7074 16.3884 21.0435 15.9324 21.1135 15.3972C21.1905 14.8056 21.0038 14.1396 20.5149 13.3812C20.4002 13.2034 20.3575 12.9865 20.3958 12.7767C20.4342 12.567 20.5506 12.3809 20.7203 12.258C21.1882 11.9196 21.4449 11.4492 21.5091 10.782C21.6118 9.71882 20.9525 8.93282 19.46 8.77562C18.1308 8.64043 16.7887 8.75551 15.4996 9.11522C15.3534 9.15452 15.1993 9.15005 15.0555 9.10234C14.9116 9.05463 14.784 8.96567 14.6877 8.84591C14.5913 8.72615 14.5302 8.58059 14.5116 8.42634C14.493 8.2721 14.5176 8.11558 14.5825 7.97522C15.1659 6.70562 15.4903 5.65802 15.5662 4.84682C15.6653 3.77042 15.4238 2.99042 14.859 2.34722C14.4308 1.86002 13.7458 1.58162 13.4891 1.63922C13.1507 1.71362 12.9302 1.91522 12.6431 2.62082C12.4739 3.03842 12.3922 3.39362 12.2522 4.22282C12.118 5.01002 12.0445 5.36522 11.8916 5.83082C11.4307 7.24202 10.3 8.70482 8.7819 9.71402C7.71793 10.4205 6.56482 10.9736 5.35476 11.358C5.27917 11.382 5.20049 11.3941 5.12139 11.394H2.52041V11.394ZM2.4714 21.618C2.09449 21.6288 1.7561 21.5424 1.47254 21.3384C1.11081 21.078 0.940446 20.6676 0.936945 20.1948L0.940446 11.4072C0.900772 10.9392 1.03496 10.5096 1.35236 10.1904C1.64991 9.89042 2.03848 9.74882 2.44923 9.75842H4.99886C6.03022 9.42047 7.01351 8.94352 7.92307 8.34002C9.14597 7.52642 10.0468 6.36002 10.391 5.30882C10.5089 4.94642 10.5719 4.64642 10.6909 3.94082C10.852 2.99402 10.9523 2.55362 11.1833 1.98722C11.6618 0.808822 12.2895 0.232822 13.1554 0.0396221C14.0072 -0.149978 15.2476 0.355222 16.0317 1.24802C16.9011 2.23682 17.285 3.47402 17.1426 5.00282C17.0819 5.66042 16.9046 6.39602 16.6129 7.21562C17.6091 7.06631 18.6195 7.04374 19.6211 7.14842C21.963 7.39442 23.2781 8.96282 23.0867 10.9452C23.0027 11.7996 22.7016 12.5256 22.1894 13.0956C22.62 13.9488 22.7915 14.7924 22.6841 15.6156C22.5605 16.5636 22.047 17.3532 21.1929 17.9664C21.1264 18.798 20.9408 19.4616 20.6118 19.9584C20.3525 20.3598 20.0142 20.7007 19.6187 20.9592C19.4927 21.78 19.2278 22.422 18.7949 22.8732C18.0773 23.6244 16.7949 24.072 15.6233 23.9904C14.5113 23.9136 13.8532 23.7744 12.3012 23.2704C11.2779 22.938 9.1588 22.386 5.96504 21.618H2.47023H2.4714ZM4.45626 11.0208C4.45596 10.9135 4.47625 10.8071 4.51599 10.7078C4.55573 10.6085 4.61413 10.5183 4.68784 10.4423C4.76155 10.3662 4.84913 10.3059 4.94555 10.2648C5.04197 10.2236 5.14535 10.2024 5.24974 10.2024C5.35395 10.2027 5.45707 10.2242 5.55322 10.2655C5.64937 10.3068 5.73667 10.3671 5.81014 10.4431C5.8836 10.5191 5.94179 10.6092 5.98138 10.7084C6.02098 10.8075 6.0412 10.9137 6.04089 11.0208V20.2344C6.04104 20.3416 6.02067 20.4477 5.98094 20.5468C5.9412 20.6458 5.88288 20.7359 5.80931 20.8118C5.73574 20.8877 5.64835 20.9479 5.55214 20.9891C5.45593 21.0302 5.35278 21.0515 5.24858 21.0516C5.14438 21.0515 5.04123 21.0302 4.94501 20.9891C4.8488 20.9479 4.76142 20.8877 4.68784 20.8118C4.61427 20.7359 4.55595 20.6458 4.51622 20.5468C4.47648 20.4477 4.45611 20.3416 4.45626 20.2344V11.0208V11.0208Z" fill="#6B6767"/>
</svg>
