<svg width="22" height="23" viewBox="0 0 22 23" fill="none" xmlns="http://www.w3.org/2000/svg">
<path d="M18.3333 8.05H16.5C16.3379 8.05 16.1825 8.11058 16.0679 8.21841C15.9533 8.32625 15.8889 8.4725 15.8889 8.625C15.8889 8.7775 15.9533 8.92375 16.0679 9.03159C16.1825 9.13942 16.3379 9.2 16.5 9.2H18.3333C18.9813 9.20091 19.6025 9.44353 20.0607 9.87466C20.519 10.3058 20.7768 10.8903 20.7778 11.5V19.55C20.7768 20.1597 20.519 20.7442 20.0607 21.1753C19.6025 21.6065 18.9813 21.8491 18.3333 21.85H3.66667C3.01866 21.8491 2.39747 21.6065 1.93925 21.1753C1.48104 20.7442 1.22319 20.1597 1.22222 19.55V11.5C1.22319 10.8903 1.48104 10.3058 1.93925 9.87466C2.39747 9.44353 3.01866 9.20091 3.66667 9.2H6.72222C6.8843 9.2 7.03974 9.13942 7.15434 9.03159C7.26895 8.92375 7.33333 8.7775 7.33333 8.625C7.33333 8.4725 7.26895 8.32625 7.15434 8.21841C7.03974 8.11058 6.8843 8.05 6.72222 8.05H3.66667C2.6945 8.05091 1.76244 8.41469 1.07501 9.06149C0.387591 9.70829 0.000970707 10.5853 0 11.5V19.55C0.000970707 20.4647 0.387591 21.3417 1.07501 21.9885C1.76244 22.6353 2.6945 22.9991 3.66667 23H18.3333C19.3055 22.9991 20.2376 22.6353 20.925 21.9885C21.6124 21.3417 21.999 20.4647 22 19.55V11.5C21.999 10.5853 21.6124 9.70829 20.925 9.06149C20.2376 8.41469 19.3055 8.05091 18.3333 8.05ZM7.16467 4.99675L10.3889 1.96305V17.8261C10.3889 17.9786 10.4533 18.1249 10.5679 18.2327C10.6825 18.3406 10.8379 18.4011 11 18.4011C11.1621 18.4011 11.3175 18.3406 11.4321 18.2327C11.5467 18.1249 11.6111 17.9786 11.6111 17.8261V1.9619L14.8353 4.9956C14.8919 5.04925 14.9592 5.09183 15.0334 5.12089C15.1075 5.14995 15.1871 5.16491 15.2674 5.16491C15.3477 5.16491 15.4273 5.14995 15.5014 5.12089C15.5756 5.09183 15.6429 5.04925 15.6994 4.9956C15.814 4.88777 15.8784 4.74154 15.8784 4.58907C15.8784 4.43661 15.814 4.29038 15.6994 4.18255L11.4327 0.1679C11.3207 0.0633277 11.17 0.00357534 11.0122 0.00114992L11 0L10.9914 0.00114992C10.8322 0.00274689 10.6799 0.0630255 10.5673 0.16905L6.30178 4.18255C6.24341 4.23559 6.19685 4.29904 6.16483 4.36919C6.1328 4.43934 6.11594 4.5148 6.11524 4.59114C6.11453 4.66749 6.12999 4.74321 6.16072 4.81387C6.19145 4.88454 6.23682 4.94874 6.2942 5.00273C6.35158 5.05672 6.41981 5.09941 6.49492 5.12832C6.57002 5.15723 6.65049 5.17178 6.73163 5.17112C6.81278 5.17046 6.89297 5.15459 6.96753 5.12446C7.04208 5.09432 7.10952 5.05052 7.16589 4.9956L7.16467 4.99675Z" fill="black"/>
</svg>
