<?xml version="1.0" encoding="utf-8"?>
<!-- Generator: Adobe Illustrator 16.0.3, SVG Export Plug-In . SVG Version: 6.00 Build 0)  -->
<!DOCTYPE svg PUBLIC "-//W3C//DTD SVG 1.1//EN" "http://www.w3.org/Graphics/SVG/1.1/DTD/svg11.dtd">
<svg version="1.1" id="Layer_1" xmlns="http://www.w3.org/2000/svg" xmlns:xlink="http://www.w3.org/1999/xlink" x="0px" y="0px"
	 width="315px" height="99.666px" viewBox="28.14 22.834 315 99.666" enable-background="new 28.14 22.834 315 99.666"
	 xml:space="preserve">
<g>
	<rect x="30.14" y="95.379" fill="#8DC442" width="102.541" height="5.277"/>
	<g>
		<path fill="#020202" stroke="#020202" stroke-width="2.123" stroke-miterlimit="10" d="M34.182,86.945V55.031h6.112v31.914H34.182
			L34.182,86.945z"/>
		<path fill="#020202" stroke="#020202" stroke-width="2.123" stroke-miterlimit="10" d="M45.15,75.065c0-2.028,0.505-4,1.508-5.908
			c1.004-1.902,2.415-3.347,4.26-4.351c1.832-1.003,3.888-1.508,6.147-1.508c3.501,0,6.357,1.136,8.596,3.41
			c2.238,2.273,3.347,5.144,3.347,8.61c0,3.5-1.13,6.393-3.382,8.694c-2.253,2.303-5.102,3.453-8.519,3.453
			c-2.126,0-4.14-0.479-6.07-1.432c-1.923-0.955-3.382-2.357-4.386-4.217C45.648,79.977,45.15,77.726,45.15,75.065z M51.423,75.388
			c0,2.301,0.548,4.049,1.635,5.262c1.087,1.215,2.428,1.832,4.028,1.832c1.6,0,2.926-0.604,4.014-1.832
			c1.081-1.221,1.621-2.981,1.621-5.305c0-2.259-0.534-3.999-1.621-5.227c-1.087-1.214-2.414-1.832-4.014-1.832
			c-1.6,0-2.94,0.61-4.028,1.832C51.963,71.339,51.423,73.107,51.423,75.388z"/>
		<path fill="#020202" stroke="#020202" stroke-width="2.123" stroke-miterlimit="10" d="M93.954,70.666l-6.035,1.08
			c-0.197-1.2-0.667-2.112-1.375-2.715c-0.723-0.604-1.656-0.913-2.8-0.913c-1.53,0-2.744,0.526-3.656,1.579
			c-0.912,1.053-1.361,2.814-1.361,5.277c0,2.745,0.463,4.68,1.375,5.809c0.912,1.131,2.162,1.691,3.712,1.691
			c1.165,0,2.112-0.322,2.849-0.988c0.736-0.652,1.263-1.797,1.564-3.41l6.007,1.023c-0.618,2.752-1.818,4.842-3.593,6.246
			c-1.775,1.41-4.14,2.111-7.116,2.111c-3.382,0-6.077-1.074-8.083-3.199c-2.007-2.133-3.01-5.088-3.01-8.856
			c0-3.817,1.003-6.786,3.024-8.912c2.021-2.126,4.75-3.186,8.182-3.186c2.813,0,5.052,0.61,6.722,1.824
			C92.045,66.336,93.23,68.182,93.954,70.666z"/>
		<path fill="#020202" stroke="#020202" stroke-width="2.123" stroke-miterlimit="10" d="M103.174,70.89l-5.551-1.004
			c0.632-2.238,1.706-3.887,3.221-4.961s3.789-1.614,6.792-1.614c2.729,0,4.765,0.33,6.091,0.968s2.273,1.467,2.821,2.463
			c0.534,0.997,0.814,2.821,0.814,5.474l-0.056,7.137c0,2.027,0.091,3.535,0.294,4.49c0.197,0.969,0.562,1.992,1.095,3.102h-6.055
			c-0.162-0.408-0.351-1.004-0.583-1.811c-0.105-0.365-0.176-0.611-0.225-0.723c-1.052,1.018-2.161,1.789-3.347,2.287
			c-1.193,0.498-2.463,0.758-3.817,0.758c-2.378,0-4.259-0.639-5.621-1.938c-1.375-1.297-2.056-2.926-2.056-4.904
			c0-1.305,0.316-2.469,0.933-3.501c0.618-1.024,1.495-1.81,2.625-2.344c1.123-0.547,2.743-1.024,4.862-1.424
			c2.856-0.541,4.842-1.039,5.937-1.509v-0.604c0-1.179-0.295-2.021-0.877-2.512c-0.583-0.499-1.684-0.744-3.291-0.744
			c-1.088,0-1.937,0.21-2.547,0.638C104.037,69.051,103.546,69.809,103.174,70.89z M111.356,75.844
			c-0.779,0.259-2.028,0.575-3.726,0.934c-1.706,0.357-2.814,0.708-3.326,1.06c-0.807,0.561-1.2,1.283-1.2,2.16
			c0,0.85,0.316,1.6,0.955,2.219c0.638,0.631,1.446,0.932,2.435,0.932c1.109,0,2.162-0.357,3.165-1.08
			c0.737-0.547,1.228-1.229,1.459-2.027c0.162-0.527,0.246-1.516,0.246-2.976L111.356,75.844L111.356,75.844z"/>
		<path fill="#020202" stroke="#020202" stroke-width="2.123" stroke-miterlimit="10" d="M123.397,86.945V55.031h6.112v31.914
			H123.397L123.397,86.945z"/>
	</g>
	<path fill="#8FC644" d="M159.521,32.17c-7.389,7.606-10.771,16.069-9.768,25.998c0.877,8.715,4.723,16.217,10.385,22.764
		c6.617,7.641,14.518,13.963,21.795,20.932c1.656,1.586,2.975,0.352,4.133-0.793c5.691-5.656,11.41-11.305,17.01-17.045
		c4.596-4.715,4.54-4.785,8.996,0.049c2.856,3.088,2.871,3.102-0.042,6.043c-8.364,8.414-16.743,16.826-25.135,25.232
		c-2.75,2.766-3.648,2.766-6.372,0.049c-10.329-10.363-21.135-20.244-30.791-31.281c-12.167-13.929-14.027-34.292-4.351-50.032
		c0.828-1.354,1.712-2.021,3.382-1.958C152.132,32.268,155.507,32.17,159.521,32.17z"/>
	<g>
		<path d="M197.756,60.757c1.565,1.93,2.351,4.203,2.351,6.807c0,3.621-1.214,6.483-3.635,8.575
			c-2.421,2.098-5.93,3.144-10.533,3.144h-18.497V36.19h18.132c4.357,0,7.705,0.955,10.041,2.871
			c2.337,1.916,3.509,4.596,3.509,8.055c0,2.688-0.702,4.884-2.105,6.596c-1.404,1.712-3.249,2.828-5.522,3.361
			C194.101,57.6,196.192,58.828,197.756,60.757z M176.053,54.259h7.754c2.154,0,3.796-0.477,4.912-1.431
			c1.115-0.955,1.677-2.33,1.677-4.119c0-1.79-0.548-3.172-1.649-4.155c-1.102-0.982-2.786-1.466-5.066-1.466h-7.634v11.171H176.053
			z M189.483,70.771c1.221-0.997,1.832-2.449,1.832-4.365c0-1.916-0.618-3.389-1.86-4.428c-1.242-1.038-3.003-1.558-5.283-1.558
			h-8.119v11.845h8.182C186.515,72.265,188.263,71.767,189.483,70.771z"/>
	</g>
	<g>
		<path d="M231.449,76.77h-4.94v-5.063h-0.123c-2.223,3.952-5.804,5.805-10.374,5.805c-8.397,0-10.991-4.816-10.991-11.67V44.847
			h5.248v21.612c0,3.891,2.471,6.422,6.484,6.422c6.36,0,9.448-4.26,9.448-10.003v-18.03h5.249V76.77z"/>
		<path d="M239.354,44.847h4.939v5.063h0.124c2.223-3.952,5.804-5.805,10.373-5.805c8.398,0,10.991,4.816,10.991,11.671V76.77
			h-5.248V55.159c0-3.89-2.471-6.422-6.483-6.422c-6.36,0-9.448,4.261-9.448,10.003v18.03h-5.248V44.847z"/>
		<path d="M302.214,76.77h-5.25v-4.322h-0.123c-1.729,3.521-5.805,5.064-10.188,5.064c-9.818,0-14.697-7.78-14.697-16.795
			c0-9.016,4.816-16.611,14.574-16.611c3.271,0,7.965,1.235,10.311,5.002h0.123V32.682h5.25V76.77z M287.394,72.88
			c7.039,0,9.756-6.052,9.756-12.041c0-6.298-2.84-12.103-10.064-12.103c-7.163,0-9.571,6.113-9.571,12.35
			C277.515,67.076,280.602,72.88,287.394,72.88z"/>
		<path d="M322.837,81.031c-2.408,6.236-4.568,8.521-9.262,8.521c-1.234,0-2.471-0.125-3.643-0.557V84.18
			c0.986,0.309,2.037,0.74,3.086,0.74c2.162,0,3.336-1.049,4.322-2.9l2.162-5.434l-12.658-31.739h5.928l9.324,26.12h0.123
			l8.953-26.12h5.559L322.837,81.031z"/>
	</g>
</g>
</svg>
